<svg width="107" height="19" viewBox="-1 -1 107 19" fill="none" id="svg-70321276_2164"><path d="M0.895996 16.8037L4.064 0.483658H7.304L4.136 16.8037H0.895996Z" fill="currentColor"></path><path d="M6.62131 16.8037L9.78931 0.483658H13.1733L17.3733 10.1797L18.0693 12.3877L20.2533 0.483658H23.4693L20.3013 16.8037H16.9413L12.7653 7.13166L12.0453 4.82766L9.86131 16.8037H6.62131Z" fill="currentColor"></path><path d="M22.8232 16.8037L25.9912 0.483658H37.4632L36.9832 3.05166H28.7272L27.8392 7.65966H35.1592L34.6552 10.2277H27.3352L26.0632 16.8037H22.8232Z" fill="currentColor"></path><path d="M35.9782 16.8037L39.1462 0.483658H42.3862L39.2182 16.8037H35.9782Z" fill="currentColor"></path><path d="M41.7035 16.8037L44.8715 0.483658H48.2555L52.4555 10.1797L53.1515 12.3877L55.3355 0.483658H58.5515L55.3835 16.8037H52.0235L47.8475 7.13166L47.1275 4.82766L44.9435 16.8037H41.7035Z" fill="currentColor"></path><path d="M57.9054 16.8037L61.0734 0.483658H64.3134L61.1454 16.8037H57.9054Z" fill="currentColor"></path><path d="M67.9267 16.8037L70.5667 3.14766H65.3107L65.8387 0.483658H79.5907L79.0867 3.14766H73.8067L71.1667 16.8037H67.9267Z" fill="currentColor"></path><path d="M77.9576 16.8037L81.1256 0.483658H92.5976L92.1176 3.05166H83.8616L83.0696 7.13166H90.3896L89.9096 9.67566H82.5896L81.7016 14.2357H89.9336L89.4296 16.8037H77.9576Z" fill="currentColor"></path><path d="M99.7001 0.123657C102.772 0.123657 104.788 2.16366 104.788 4.94766C104.788 8.57166 101.74 11.8117 97.5881 11.8117C94.5161 11.8117 92.5001 9.77166 92.5001 6.98766C92.5001 3.36366 95.548 0.123657 99.7001 0.123657ZM97.7321 10.7077C101.02 10.7077 103.468 7.97166 103.468 4.97166C103.468 2.76366 101.932 1.22766 99.5561 1.22766C96.2681 1.22766 93.8201 3.96366 93.8201 6.96366C93.8201 9.17166 95.3561 10.7077 97.7321 10.7077ZM95.4761 9.12366L96.7481 2.59566H99.5321C100.924 2.59566 101.764 3.26766 101.764 4.39566C101.764 5.11566 101.332 5.76366 100.612 6.14766C100.876 6.38766 100.996 6.72366 101.02 7.20366L101.092 9.12366H99.2201V7.46766C99.1961 6.89166 99.0281 6.77166 98.5241 6.77166H97.7561L97.3 9.12366H95.4761ZM99.1961 4.01166H98.3081L97.9961 5.52366H98.8601C99.6041 5.52366 99.9641 5.11566 99.9641 4.61166C99.9641 4.22766 99.6761 4.01166 99.1961 4.01166Z" fill="currentColor"></path></svg>